<?xml version="1.0" encoding="UTF-8" standalone="no"?>
<!-- Created with Inkscape (http://www.inkscape.org/) -->

<svg
   width="177.20496mm"
   height="165.51784mm"
   viewBox="0 0 177.20495 165.51784"
   version="1.1"
   id="svg1"
   xml:space="preserve"
   inkscape:version="1.3.2 (091e20e, 2023-11-25)"
   sodipodi:docname="florida.svg"
   xmlns:inkscape="http://www.inkscape.org/namespaces/inkscape"
   xmlns:sodipodi="http://sodipodi.sourceforge.net/DTD/sodipodi-0.dtd"
   xmlns="http://www.w3.org/2000/svg"
   xmlns:svg="http://www.w3.org/2000/svg"><sodipodi:namedview
     id="namedview1"
     pagecolor="#515151"
     bordercolor="#000000"
     borderopacity="0.25"
     inkscape:showpageshadow="2"
     inkscape:pageopacity="0.0"
     inkscape:pagecheckerboard="0"
     inkscape:deskcolor="#d1d1d1"
     inkscape:document-units="mm"
     inkscape:zoom="1"
     inkscape:cx="314.5"
     inkscape:cy="302"
     inkscape:window-width="1392"
     inkscape:window-height="1027"
     inkscape:window-x="309"
     inkscape:window-y="25"
     inkscape:window-maximized="0"
     inkscape:current-layer="layer1" /><defs
     id="defs1" /><g
     inkscape:label="Layer 1"
     inkscape:groupmode="layer"
     id="layer1"
     transform="translate(-21.030645,-37.997953)"><path
       style="fill:#ffffff;fill-opacity:1"
       d="m 158.96897,203.06704 c -2.3818,-3.56236 10.91055,-2.54504 10.92589,-2.51471 1.84999,3.65749 -9.34458,3.15114 -10.92584,2.51467 z m 13.33719,-1.90222 c -0.98325,-0.14953 -1.38616,-1.74751 1.22891,-2.72593 11.00414,-4.11718 13.87573,-10.92676 15.41526,-8.60397 0.80591,1.21593 -10.12821,10.04265 -14.44323,11.32633 z m -10.78564,-29.67648 c -13.01574,-2.4727 -1.04633,-7.70748 6.47539,-0.81522 8.37213,8.25325 0.0483,21.33838 12.39192,13.92077 15.12292,-0.66163 12.90703,-21.42876 13.59725,-29.88317 0.90433,-11.07698 -6.10949,-22.57481 -11.12858,-32.44784 -3.49603,-6.68129 -2.84444,-6.78925 -3.1057,-10.02739 -0.76323,-9.45973 -5.82788,-16.979156 -10.97846,-24.200041 -8.3409,-10.850268 -5.82149,-36.947999 -16.6509,-40.340802 -4.28405,-1.34217 2.37288,11.772407 -5.49364,9.943783 -20.72461,-15.35947 -68.954639,4.902117 -66.658159,-17.78899 0.387709,-3.830887 2.750028,6.338724 6.271023,6.903209 39.189786,6.282894 37.522076,-5.730343 58.818156,6.617676 2.11445,1.226011 2.42689,0.437898 1.62844,-3.660454 -3.52687,-9.301671 10.2811,-7.266845 14.63432,-3.765755 1.393,4.933932 1.69432,12.100208 2.75645,17.302276 1.95328,9.566664 4.39914,15.959338 8.19939,23.915907 1.57045,3.44451 5.82411,9.41168 7.95201,11.15533 3.62761,2.972551 4.64356,6.691371 3.67088,13.437041 -0.80962,5.61491 3.55348,5.91226 8.56312,19.31458 7.88678,14.6797 7.00626,29.90471 1.47818,45.68691 -1.39988,5.00582 0.40957,10.44179 -7.01724,9.96012 -5.35463,-0.69865 -5.46311,1.47108 -8.95634,3.81295 -15.5052,2.47433 -2.79732,-16.4477 -16.44751,-19.04089 z m -5.81986,-2.25291 c -1.57548,-2.58401 -0.46119,-13.02073 -3.43732,-9.59072 -1.02872,2.46032 -3.48208,1.56605 -3.84785,0.27618 -2.86139,-10.09051 -11.26569,-16.94963 -13.91628,-27.26411 -0.7302,-5.64755 0.6942,-6.93964 1.22475,-8.44888 1.35246,-3.84732 0.43643,-3.1396 -0.14657,-3.36807 -1.56771,-0.61436 -3.64031,6.57068 -4.60103,5.49544 -5.48033,-6.1335 9.29952,-31.683977 -8.21343,-40.252401 -16.29378,-7.97199 -4.47589,-14.899157 -25.85954,-18.309101 -5.672881,5.565483 -7.607866,5.237036 -10.323756,5.070388 -6.409164,-0.418065 -7.709965,3.906044 -13.134394,3.085773 -3.028123,-0.4579 -3.687025,-0.765443 -5.390357,-4.738808 -11.521986,-26.87735 -44.967105,-0.09435 -41.419015,-16.851014 2.278978,-7.354851 -5.605223,-2.37532 -5.605223,-8.294856 0,-0.434601 0.766505,-2.301837 1.729541,-4.213232 l 1.729542,-3.432721 22.67827,-0.171314 c 12.473049,-0.09422 24.333453,0.144934 26.370744,0.03126 5.69402,-0.565576 6.983572,-0.419253 7.953614,2.550617 0.08709,0.266621 -10.820302,0.528683 -29.770045,0.544344 l -25.796874,0.02132 -1.139932,2.190302 c -1.556017,2.989783 -1.510831,3.080755 2.065973,4.159284 5.578966,1.780607 0.843776,5.086835 2.184187,9.423551 4.255971,3.180733 8.784574,-0.305184 15.040699,-1.081183 5.635382,-0.699003 11.081077,-0.426128 13.525916,0.595391 1.612942,0.67393 5.719295,3.82784 8.462135,6.46678 5.771205,6.022012 5.586666,10.572003 14.100604,6.925526 5.722567,-2.45926 6.755631,-0.327695 8.889342,-1.559859 3.043953,-1.757806 4.533333,-3.051038 5.14321,-3.241146 15.503179,-4.832558 24.814439,15.426452 29.865299,17.964451 22.26918,11.190072 7.0175,35.483928 8.82867,34.908878 4.05549,-1.28762 7.40548,-1.11714 7.32876,3.79798 -5.31394,9.79435 3.98879,19.75174 7.04132,28.4906 0.96041,2.74948 1.9343,3.04011 3.34477,6.44528 1.68499,-1.33564 5.68235,-3.66975 6.43908,3.48806 0.14362,1.35843 0.44738,3.56348 0.67502,4.90012 1.21101,7.1107 -2.01983,4.10694 -2.01983,3.98589 z"
       id="path1"
       sodipodi:nodetypes="cscccssccsssssssssssssssssssscssssssssscssssscccssscsscsssssssssscssss" /></g></svg>
