<?xml version="1.0" standalone="no"?>
<!DOCTYPE svg PUBLIC "-//W3C//DTD SVG 20010904//EN"
 "http://www.w3.org/TR/2001/REC-SVG-20010904/DTD/svg10.dtd">
<svg version="1.0" xmlns="http://www.w3.org/2000/svg"
 width="300.000000pt" height="268.000000pt" viewBox="0 0 300.000000 268.000000"
 preserveAspectRatio="xMidYMid meet">
<metadata>
Created by potrace 1.10, written by Peter Selinger 2001-2011
</metadata>
<g transform="translate(0.000000,258.000000) scale(0.100000,-0.100000)"
fill="#65acb4" stroke="none">
<path d="M178 2563 c-60 -3 -68 -6 -68 -24 0 -10 12 -29 26 -42 37 -32 47 -53
34 -76 -7 -14 -7 -27 2 -46 10 -22 9 -31 -6 -56 -15 -26 -16 -30 -2 -35 22 -8
84 41 92 71 7 28 14 31 32 13 10 -10 15 -10 22 1 7 12 11 12 24 2 9 -8 16 -16
16 -20 0 -7 -80 -41 -98 -41 -6 0 -12 -5 -12 -11 0 -8 14 -9 43 -5 23 4 75 11
115 15 58 7 77 13 88 30 12 16 25 21 62 21 26 0 54 -5 62 -10 11 -7 -4 -10
-48 -10 -74 0 -82 -20 -14 -32 54 -9 212 -78 219 -95 7 -18 23 -17 23 2 0 8
-9 20 -19 27 -27 17 -8 38 33 38 23 0 27 -3 16 -10 -8 -5 -15 -25 -16 -45 -1
-31 6 -41 54 -82 49 -42 53 -48 37 -59 -16 -12 -16 -14 0 -38 21 -32 45 -33
150 -6 43 11 80 18 83 15 2 -2 -22 -16 -54 -30 -43 -19 -55 -28 -44 -35 24
-15 120 46 120 77 0 24 62 54 98 49 32 -5 33 -4 28 22 -4 21 0 31 19 45 21 15
31 16 67 6 24 -6 59 -20 78 -31 43 -26 154 -138 191 -195 16 -24 33 -43 38
-43 6 0 24 -20 41 -45 24 -35 38 -46 68 -51 48 -9 59 -18 66 -59 4 -19 15 -40
25 -47 33 -23 36 -96 11 -200 -13 -51 -29 -101 -36 -112 -16 -23 -7 -155 11
-175 9 -9 23 -11 40 -7 22 6 26 11 21 29 -24 77 -14 130 12 72 7 -15 20 -25
32 -25 26 0 26 -24 -2 -69 -13 -19 -28 -45 -33 -56 -6 -11 -21 -21 -33 -23
-29 -4 -28 -20 0 -24 19 -2 26 -15 41 -72 20 -77 79 -174 117 -193 33 -16 47
-2 32 32 -11 24 0 36 13 15 3 -5 15 -10 27 -10 17 0 19 -4 13 -22 -16 -51 -16
-77 -1 -107 9 -17 23 -31 31 -31 8 0 15 -9 15 -19 0 -11 5 -21 12 -23 6 -2 19
-31 29 -64 9 -32 25 -80 34 -106 l17 -48 49 0 c57 0 80 -20 129 -112 34 -64
71 -98 107 -98 21 0 22 -2 12 -21 l-11 -21 -24 23 c-23 22 -24 22 -44 4 -28
-25 -25 -38 14 -59 30 -16 36 -16 61 -3 22 11 36 12 63 4 32 -10 36 -9 57 17
19 24 27 27 54 21 17 -3 31 -10 31 -15 0 -4 -18 -31 -41 -60 -22 -28 -38 -54
-35 -57 13 -13 57 31 90 89 48 87 53 100 31 92 -15 -6 -16 -4 -8 11 7 11 7 30
2 51 -8 26 -5 39 12 68 31 52 49 120 60 216 5 47 12 111 15 143 11 101 -20
208 -89 303 -13 17 -36 71 -51 120 -16 49 -46 123 -67 164 -22 42 -39 88 -39
103 0 16 -5 27 -14 27 -8 0 -27 35 -46 81 -31 78 -37 114 -10 65 7 -13 21 -27
31 -29 19 -5 23 -12 33 -59 8 -35 26 -37 26 -3 0 32 -37 108 -81 165 -88 116
-259 523 -259 618 0 15 -7 37 -15 49 -8 12 -14 38 -12 59 2 39 2 39 -32 36
-19 -2 -65 4 -103 14 -82 21 -97 14 -78 -38 8 -22 9 -47 3 -78 -7 -39 -12 -45
-36 -48 -15 -2 -27 0 -28 5 -3 43 -7 75 -10 77 -2 2 -170 11 -374 20 -203 9
-413 19 -467 22 l-96 6 -26 59 -25 59 -393 -2 c-216 -1 -423 -3 -460 -5z m862
-73 c26 -51 34 -60 62 -64 18 -3 164 -11 323 -17 160 -6 353 -14 430 -18 l140
-6 5 -35 c5 -37 38 -62 75 -58 28 4 48 69 42 134 l-5 52 70 -20 c38 -11 76
-17 84 -14 10 4 14 -3 14 -27 1 -18 7 -43 15 -57 8 -14 14 -36 15 -50 0 -13
18 -83 41 -155 46 -147 172 -406 225 -465 35 -39 41 -50 25 -50 -5 0 -13 9
-16 20 -7 23 -33 27 -41 5 -8 -20 46 -175 68 -197 10 -10 18 -25 18 -33 0 -8
15 -43 34 -77 19 -35 48 -108 66 -163 18 -55 46 -118 61 -140 78 -108 96 -199
73 -355 -27 -185 -33 -213 -59 -265 -22 -43 -25 -61 -22 -122 2 -40 2 -73 0
-73 -2 0 -18 7 -34 16 -28 14 -33 14 -55 -1 -14 -9 -27 -22 -30 -29 -4 -11
-14 -11 -45 -4 -32 9 -37 13 -28 24 17 21 3 44 -26 44 -31 0 -66 35 -96 97
-12 25 -39 63 -60 85 -36 38 -41 40 -78 34 -38 -6 -41 -4 -47 21 -4 16 -15 46
-25 68 -10 22 -19 52 -19 68 0 15 -8 35 -18 45 -10 10 -21 26 -25 35 -3 9 -13
17 -20 17 -8 0 -20 13 -26 29 -10 23 -9 35 3 65 18 44 12 66 -19 66 -13 0 -27
5 -30 10 -8 13 -55 13 -55 -1 0 -6 5 -19 10 -30 6 -10 7 -19 2 -19 -25 0 -90
113 -107 184 -7 28 -14 56 -16 61 -2 6 14 45 35 87 34 65 38 79 27 92 -8 9
-21 16 -31 16 -9 0 -22 12 -28 26 -9 18 -19 24 -35 22 -20 -3 -22 -8 -21 -61
1 -38 -2 -57 -10 -54 -16 5 -18 117 -2 157 24 59 46 172 46 236 0 52 -4 64
-25 84 -14 13 -27 38 -31 56 -7 40 -18 49 -64 58 -26 4 -49 21 -91 68 -30 35
-64 76 -74 91 -30 47 -154 161 -201 185 -24 12 -64 25 -88 28 -38 6 -47 3 -75
-21 -17 -16 -31 -34 -31 -42 0 -7 -9 -13 -20 -13 -23 0 -70 -27 -83 -47 -4 -7
-17 -13 -28 -13 -11 0 -28 -4 -38 -10 -34 -18 -144 -31 -152 -18 -5 7 -3 18 2
25 17 19 2 45 -46 83 -25 19 -43 39 -41 45 2 5 -1 17 -5 27 -6 11 -4 18 6 22
18 7 20 46 3 47 -43 3 -85 -4 -95 -18 -11 -14 -18 -13 -67 7 -49 21 -53 25
-43 42 18 30 -15 48 -86 48 -47 0 -62 -4 -75 -21 -11 -12 -34 -23 -60 -26 -38
-5 -42 -3 -42 15 0 33 -43 60 -85 53 -27 -5 -39 -14 -53 -40 -28 -57 -38 -48
-36 33 2 70 1 76 -27 102 -16 15 -29 31 -29 36 0 9 128 13 542 16 l328 2 30
-60z"/>
</g>
</svg>
