<?xml version="1.0" encoding="UTF-8" standalone="no"?>
<!-- Created with Inkscape (http://www.inkscape.org/) -->

<svg
   width="512mm"
   height="512mm"
   viewBox="0 0 512 512"
   version="1.1"
   id="svg1"
   xml:space="preserve"
   inkscape:version="1.3.2 (091e20e, 2023-11-25, custom)"
   sodipodi:docname="jointJamLogo.svg"
   xmlns:inkscape="http://www.inkscape.org/namespaces/inkscape"
   xmlns:sodipodi="http://sodipodi.sourceforge.net/DTD/sodipodi-0.dtd"
   xmlns="http://www.w3.org/2000/svg"
   xmlns:svg="http://www.w3.org/2000/svg"><sodipodi:namedview
     id="namedview1"
     pagecolor="#303030"
     bordercolor="#000000"
     borderopacity="0.25"
     inkscape:showpageshadow="2"
     inkscape:pageopacity="0.0"
     inkscape:pagecheckerboard="false"
     inkscape:deskcolor="#d1d1d1"
     inkscape:document-units="mm"
     inkscape:zoom="0.82003016"
     inkscape:cx="998.13402"
     inkscape:cy="912.7713"
     inkscape:window-width="3840"
     inkscape:window-height="2066"
     inkscape:window-x="-11"
     inkscape:window-y="-11"
     inkscape:window-maximized="1"
     inkscape:current-layer="layer1" /><defs
     id="defs1"><inkscape:path-effect
       effect="perspective-envelope"
       up_left_point="25.868027,18.455436"
       up_right_point="261.21026,14.260976"
       down_left_point="5.8636814,148.28774"
       down_right_point="235.72086,176.68101"
       id="path-effect17"
       is_visible="true"
       lpeversion="1"
       deform_type="perspective"
       horizontal_mirror="false"
       vertical_mirror="false"
       overflow_perspective="false" /><inkscape:path-effect
       effect="perspective-envelope"
       up_left_point="82.377667,136.57944"
       up_right_point="279.80041,155.93848"
       down_left_point="65.92248,251.2598"
       down_right_point="259.79606,292.5591"
       id="path-effect16"
       is_visible="true"
       lpeversion="1"
       deform_type="perspective"
       horizontal_mirror="false"
       vertical_mirror="false"
       overflow_perspective="false" /><inkscape:path-effect
       effect="perspective-envelope"
       up_left_point="39.742007,18.455435"
       up_right_point="272.18039,17.810134"
       down_left_point="29.739836,266.10174"
       down_right_point="241.85122,317.72585"
       id="path-effect15"
       is_visible="true"
       lpeversion="1"
       deform_type="perspective"
       horizontal_mirror="false"
       vertical_mirror="false"
       overflow_perspective="false" /><inkscape:path-effect
       effect="perspective-envelope"
       up_left_point="60,45.880748"
       up_right_point="232.817,45.880748"
       down_left_point="47.485626,237.38582"
       down_right_point="232.817,237.38582"
       id="path-effect14"
       is_visible="true"
       lpeversion="1"
       deform_type="perspective"
       horizontal_mirror="false"
       vertical_mirror="false"
       overflow_perspective="false" /><inkscape:path-effect
       effect="spiro"
       id="path-effect7"
       is_visible="true"
       lpeversion="1" /><inkscape:path-effect
       effect="spiro"
       id="path-effect6"
       is_visible="true"
       lpeversion="1" /><inkscape:path-effect
       effect="spiro"
       id="path-effect5"
       is_visible="true"
       lpeversion="1" /><inkscape:path-effect
       effect="spiro"
       id="path-effect4"
       is_visible="true"
       lpeversion="1" /><inkscape:path-effect
       effect="spiro"
       id="path-effect3"
       is_visible="true"
       lpeversion="1" /><inkscape:path-effect
       effect="spiro"
       id="path-effect2"
       is_visible="true"
       lpeversion="1" /><inkscape:path-effect
       effect="spiro"
       id="path-effect7-3"
       is_visible="true"
       lpeversion="1" /><inkscape:path-effect
       effect="spiro"
       id="path-effect7-7"
       is_visible="true"
       lpeversion="1" /><inkscape:path-effect
       effect="spiro"
       id="path-effect7-1"
       is_visible="true"
       lpeversion="1" /></defs><g
     inkscape:label="Layer 1"
     inkscape:groupmode="layer"
     id="layer1"><path
       style="fill:none;stroke-width:0.264583;fill-opacity:1;stroke:none;stroke-opacity:1"
       d="m 30.006517,130.67354 c -11.446668,7.7193 -20.4863383,18.95543 -25.5753224,31.78961 -5.088984,12.83417 -6.2056741,27.2119 -3.1593749,40.67793 3.0462991,13.46603 10.2426533,25.96318 20.3601533,35.35732 10.117499,9.39415 23.113187,15.64542 36.767809,17.68628 11.491263,1.71752 23.347244,0.48795 34.424905,-3.01697 11.077663,-3.50491 21.388383,-9.24928 30.560303,-16.38194 18.34385,-14.26532 31.93142,-33.78909 43.10279,-54.16546 8.17849,-14.91742 15.21621,-30.44579 23.62941,-45.23211 8.41319,-14.78633 18.34027,-28.9658 31.33224,-39.948786 12.99197,-10.982989 29.33747,-18.605287 46.34802,-18.847014 8.50527,-0.120863 17.07076,1.618553 24.70945,5.360843 7.63869,3.74229 14.32175,9.513813 18.85106,16.713787 7.60208,12.08456 8.6856,27.50965 5.14324,41.34005 -3.54235,13.8304 -11.32925,26.24135 -20.39282,37.27221 -9.06357,11.03086 -19.45952,20.88088 -29.18785,31.33016 -9.72834,10.44929 -18.89837,21.6661 -24.93248,34.6051 -10.06498,21.58245 -10.54583,47.42802 -1.29061,69.36992"
       id="path2"
       inkscape:path-effect="#path-effect2"
       inkscape:original-d="m 30.006517,130.67354 c 9.034222,41.40685 18.713744,83.45899 28.393265,125.51114 9.679522,42.05214 72.058658,-49.04291 108.087998,-73.56437 36.02933,-24.52145 96.58011,-54.63552 144.87018,-81.95328 48.29005,-27.317766 -46.2466,96.36501 -69.36991,144.54752 -23.12331,48.18251 -0.86041,46.24661 -1.29061,69.36992" /><path
       style="fill:none;fill-opacity:1;stroke:#65adb4;stroke-width:7.865;stroke-linecap:round;stroke-dasharray:none;stroke-opacity:1"
       d="m 271.02662,255.21673 c 5.16862,-0.19654 10.35287,0.0195 15.48723,0.6453 4.07976,0.49729 8.16886,1.26534 11.93808,2.90385 6.4455,2.80191 11.60321,8.01655 15.48722,13.87399 4.41417,6.65696 7.35054,14.20885 9.35689,21.94025 2.27087,8.75069 3.38268,17.76116 5.41013,26.57143 2.35901,10.25106 5.94294,20.17164 9.06998,30.21509 4.39073,14.10216 7.92766,28.57897 14.4606,41.82549 0.90775,1.8406 1.8751,3.65915 3.05705,5.33689 0.54836,0.77838 1.14528,1.52851 1.85024,2.1685 0.70497,0.64 1.52341,1.16901 2.43034,1.45893 0.99477,0.318 2.06642,0.33929 3.10063,0.19405 1.03422,-0.14523 2.03841,-0.45204 3.02974,-0.78063 3.58831,-1.18942 7.07819,-2.6803 10.72199,-3.687 0.39568,-0.10932 0.79579,-0.21334 1.20527,-0.24235 0.40948,-0.029 0.83261,0.0208 1.19909,0.20575 0.42833,0.21618 0.75512,0.60929 0.93217,1.05522 0.17705,0.44593 0.21084,0.94112 0.14201,1.41595 -0.13766,0.94967 -0.66299,1.79259 -1.18658,2.59674 -2.0816,3.19699 -4.33831,6.30159 -5.9933,9.73886 -0.76208,1.58278 -1.39605,3.24228 -1.68036,4.97581 -0.28432,1.73353 -0.20618,3.55062 0.41878,5.19238 0.76981,2.0223 2.32829,3.67241 4.12345,4.88059 1.79516,1.20818 3.82803,2.01252 5.86753,2.73553 4.33018,1.53507 8.82736,2.77126 12.73828,5.18199 6.31494,3.8926 10.5471,10.59145 12.6516,17.70495 0.97795,3.3056 1.53956,6.71903 2.38772,10.0603 0.84815,3.34126 2.01151,6.66432 4.04404,9.44861 3.17873,4.35443 8.20416,7.00729 13.32486,8.69368 5.26105,1.73261 10.8668,2.60021 16.36941,1.96633 5.50261,-0.63389 10.89899,-2.8368 14.91101,-6.65573 4.46983,-4.25471 6.95615,-10.1761 8.71156,-16.09221 4.15559,-14.00524 4.85683,-28.75887 6.01846,-43.32137 1.33012,-16.67484 3.29482,-33.50259 0.90588,-50.05893 -1.64953,-11.43192 -5.36268,-22.51568 -10.39976,-32.90979 -4.3406,-8.95691 -9.64921,-17.40329 -14.82234,-25.90657 -1.58833,-2.6108 -3.17181,-5.2425 -4.31769,-8.07552 -1.14588,-2.83302 -1.84485,-5.89872 -1.58789,-8.94388 0.15518,-1.83899 0.65385,-3.63362 0.85388,-5.46827 0.31059,-2.84874 -0.1087,-5.74529 -0.95128,-8.48424 -0.84257,-2.73895 -2.10062,-5.33303 -3.48754,-7.84067 -3.73514,-6.75337 -8.42861,-12.95096 -11.99344,-19.79576 -3.42627,-6.57876 -5.77642,-13.71645 -6.92889,-21.04388"
       id="path3"
       inkscape:path-effect="#path-effect3"
       inkscape:original-d="m 271.02662,255.21673 c 5.59261,0.2151 10.53992,0.4302 15.48723,0.6453 4.94731,0.2151 7.74361,1.9359 11.93808,2.90385 4.19446,0.96796 10.32481,9.24933 15.48722,13.87399 5.16242,4.62465 6.34548,14.41172 9.35689,21.94025 3.01141,7.52851 3.90441,17.96741 5.41013,26.57143 1.50569,8.60401 5.8435,20.10538 9.06998,30.21509 3.22652,10.10972 8.97552,26.876 14.4606,41.82549 5.48505,14.94949 2.41176,4.04628 3.05705,5.33689 0.64532,1.29059 1.05406,3.08969 4.28058,3.62743 3.22651,0.53776 3.97936,-0.0489 6.13037,-0.58658 1.07551,-0.26887 7.73738,-3.28979 10.72199,-3.687 2.98462,-0.39721 1.43641,0.23225 2.40436,-0.0366 1.9359,-0.53774 -0.005,3.66974 -0.1124,5.06791 -0.0538,0.69907 -4.9626,6.43325 -5.9933,9.73886 -1.03069,3.30561 -0.29363,8.23228 -1.26158,10.16819 -1.93589,3.8718 7.73242,2.56126 9.99098,7.61612 2.25856,5.05484 9.29668,3.67627 12.73828,5.18199 3.44162,1.50569 6.95145,11.25195 12.6516,17.70495 5.70016,6.45303 3.85056,12.62569 6.43176,19.50891 2.58119,6.88321 9.13039,6.00493 13.32486,8.69368 4.19446,2.68875 20.63295,-2.86105 31.28042,-4.6894 10.64747,-1.82838 5.59262,-10.82226 8.71156,-16.09221 3.11896,-5.26997 5.80544,-38.10869 6.01846,-43.32137 1.66544,-40.75359 -0.38474,-28.01112 0.90588,-50.05893 1.29061,-22.04778 -6.74303,-17.96031 -10.39976,-32.90979 -3.6567,-14.94949 -9.65995,-17.41009 -14.82234,-25.90657 -5.16242,-8.49646 -4.72253,-13.79291 -5.90558,-17.0194 -1.18306,-3.22652 0.85388,-0.62852 0.85388,-5.46827 0,-4.83976 -2.71803,-11.3776 -4.43882,-16.32491 -1.7208,-4.94731 -7.90653,-13.34275 -11.99344,-19.79576 -4.08692,-6.45302 -4.67033,-13.08516 -6.92889,-21.04388"
       sodipodi:nodetypes="cssssssssssssssssssssssssssssssc" /><path
       style="fill:none;fill-opacity:1;stroke:#65adb4;stroke-width:7.865;stroke-linecap:round;stroke-dasharray:none;stroke-opacity:1"
       d="m 274.3486,168.71583 c 5.96218,0.0457 11.92054,0.58039 17.79558,1.59704 3.04328,0.52662 6.06538,1.18245 9.12593,1.59704 13.45449,1.82259 27.51582,-1.21992 39.01339,-8.4415"
       id="path4"
       inkscape:path-effect="#path-effect4"
       inkscape:original-d="m 274.3486,168.71583 c 5.77977,0.38025 11.90175,0.98864 17.79558,1.59704 5.89383,0.6084 6.00792,1.06469 9.12593,1.59704 3.11804,0.53234 26.00894,-5.62766 39.01339,-8.4415" /><path
       style="fill:none;fill-opacity:1;stroke:#7f7f7f;stroke-width:7.865;stroke-linecap:round;stroke-dasharray:none;stroke-opacity:1"
       d="m 285.64195,113.84611 c 9.48202,0.92921 18.99543,1.53807 28.51855,1.82519 12.81421,0.38635 25.64557,0.19 38.44304,-0.57037 11.04141,-0.65603 22.10142,-1.73898 32.85338,-4.33482 3.70136,-0.89362 7.3844,-1.96935 11.17929,-2.28149 3.58949,-0.29524 7.21368,0.10241 10.72298,0.91259 10.53649,2.43252 20.04832,8.61382 27.14966,16.76892 4.93155,5.66333 8.73311,12.21977 12.09188,18.93633 6.31239,12.62293 11.15866,25.93903 15.17187,39.46969 10.57694,35.66047 15.41093,73.01761 14.25927,110.19575"
       id="path5"
       inkscape:path-effect="#path-effect5"
       inkscape:original-d="m 285.64195,113.84611 c 9.69632,0.87457 18.82224,0.95062 28.51855,1.82519 9.69632,0.87457 25.55264,-0.38025 38.44304,-0.57037 12.89039,-0.19012 19.69682,-2.47161 32.85338,-4.33482 13.15657,-1.86321 9.65828,-1.93927 11.17929,-2.28149 1.52098,-0.34222 7.0726,0.64642 10.72298,0.91259 3.65038,0.26618 18.17582,11.14126 27.14966,16.76892 8.97385,5.62766 7.98521,12.66224 12.09188,18.93633 4.10668,6.27408 10.19064,26.35115 15.17187,39.46969 4.98123,13.11854 9.50619,73.38778 14.25927,110.19575"
       sodipodi:nodetypes="cssssssssc" /><path
       style="fill:none;fill-opacity:1;stroke:#7f7f7f;stroke-width:7.865;stroke-linecap:round;stroke-dasharray:none;stroke-opacity:1"
       d="m 83.730507,304.69234 c -2.628314,5.98885 -5.026235,12.07881 -7.186679,18.25188 -3.978077,11.36663 -7.145445,22.99701 -10.494833,34.56451 -1.95094,6.73779 -3.970534,13.48357 -5.019267,20.41929 -0.678629,4.48806 -0.946367,9.03818 -0.798518,13.57485 0.08315,2.55155 0.299523,5.11134 0.909711,7.59024 0.610189,2.47891 1.627372,4.8838 3.196961,6.89718 2.139486,2.74441 5.209711,4.6416 8.441496,5.93185 6.171523,2.4639 13.221419,2.84172 19.506697,0.68445 2.369803,-0.81338 4.612354,-1.96967 6.730381,-3.30814 4.684724,-2.96048 8.754554,-6.79732 12.548164,-10.83707 9.31937,-9.92404 17.1312,-21.1876 23.9556,-32.96745 6.80824,-11.75195 12.66003,-24.04298 19.62077,-35.70526 2.31413,-3.87718 4.7493,-7.68212 7.30076,-11.40741"
       id="path6"
       inkscape:path-effect="#path-effect6"
       inkscape:original-d="m 83.730507,304.69234 c -2.661732,6.84445 -4.524947,11.40743 -7.186679,18.25188 -2.661732,6.84445 -6.996555,22.96697 -10.494833,34.56451 -3.498276,11.59756 -3.346177,13.61286 -5.019267,20.41929 -1.673088,6.80644 -0.494322,9.04989 -0.798518,13.57485 -0.3042,4.52493 2.699755,9.65827 4.106672,14.48742 1.406916,4.82915 5.627663,3.95457 8.441496,5.93185 2.813831,1.97731 13.080513,0.41828 19.506697,0.68445 6.426185,0.26617 4.334823,-2.16741 6.730381,-3.30814 2.395564,-1.14075 8.517544,-7.22471 12.548164,-10.83707 4.03063,-3.61235 15.93238,-21.90226 23.9556,-32.96745 8.02322,-11.06522 13.04249,-23.95559 19.62077,-35.70526 6.57828,-11.74964 4.22075,-6.84443 7.30076,-11.40741"
       sodipodi:nodetypes="csssssssssssc" /><path
       style="display:inline;fill:none;fill-opacity:1;stroke:#c5a41c;stroke-width:3.865;stroke-linecap:round;stroke-dasharray:none;stroke-opacity:1"
       d="m 319.42423,194.63905 c -0.92508,4.1599 -0.3138,8.68785 1.89947,12.32955 2.21327,3.64169 6.05593,6.30894 10.2806,6.86817 4.09041,0.54146 8.35318,-0.912 11.4213,-3.67085 3.06812,-2.75885 4.9447,-6.74295 5.35654,-10.84843 0.38414,-3.82939 -0.4943,-7.81007 -2.64063,-11.0046 -2.14633,-3.19454 -5.58174,-5.54464 -9.37812,-6.17655 -3.81746,-0.63542 -7.85228,0.49212 -10.92249,2.84808 -3.07021,2.35597 -5.17658,5.87693 -6.01667,9.65463 z"
       id="path7"
       inkscape:path-effect="#path-effect7"
       inkscape:original-d="m 319.42423,194.63905 c -5.8615,4.27512 8.06625,12.85226 12.18007,19.19772 4.11379,6.34547 11.18521,-9.70641 16.77784,-14.51928 5.5926,-4.81288 -8.01251,-11.4541 -12.01875,-17.18115 -4.00625,-5.72705 -11.40032,8.38891 -16.93916,12.50271 z" /><path
       style="display:inline;fill:none;fill-opacity:1;stroke:#562fb1;stroke-width:3.865;stroke-linecap:round;stroke-dasharray:none;stroke-opacity:1"
       d="m 319.42423,194.63905 c -0.92508,4.1599 -0.3138,8.68785 1.89947,12.32955 2.21327,3.64169 6.05593,6.30894 10.2806,6.86817 4.09041,0.54146 8.35318,-0.912 11.4213,-3.67085 3.06812,-2.75885 4.9447,-6.74295 5.35654,-10.84843 0.38414,-3.82939 -0.4943,-7.81007 -2.64063,-11.0046 -2.14633,-3.19454 -5.58174,-5.54464 -9.37812,-6.17655 -3.81746,-0.63542 -7.85228,0.49212 -10.92249,2.84808 -3.07021,2.35597 -5.17658,5.87693 -6.01667,9.65463 z"
       id="path7-8"
       inkscape:path-effect="#path-effect7-3"
       inkscape:original-d="m 319.42423,194.63905 c -5.8615,4.27512 8.06625,12.85226 12.18007,19.19772 4.11379,6.34547 11.18521,-9.70641 16.77784,-14.51928 5.5926,-4.81288 -8.01251,-11.4541 -12.01875,-17.18115 -4.00625,-5.72705 -11.40032,8.38891 -16.93916,12.50271 z"
       transform="matrix(1.0193607,0,0,1.0193607,20.747969,38.698609)" /><path
       style="display:inline;fill:none;fill-opacity:1;stroke:#3a8a56;stroke-width:3.865;stroke-linecap:round;stroke-dasharray:none;stroke-opacity:1"
       d="m 319.42423,194.63905 c -0.92508,4.1599 -0.3138,8.68785 1.89947,12.32955 2.21327,3.64169 6.05593,6.30894 10.2806,6.86817 4.09041,0.54146 8.35318,-0.912 11.4213,-3.67085 3.06812,-2.75885 4.9447,-6.74295 5.35654,-10.84843 0.38414,-3.82939 -0.4943,-7.81007 -2.64063,-11.0046 -2.14633,-3.19454 -5.58174,-5.54464 -9.37812,-6.17655 -3.81746,-0.63542 -7.85228,0.49212 -10.92249,2.84808 -3.07021,2.35597 -5.17658,5.87693 -6.01667,9.65463 z"
       id="path7-3"
       inkscape:path-effect="#path-effect7-7"
       inkscape:original-d="m 319.42423,194.63905 c -5.8615,4.27512 8.06625,12.85226 12.18007,19.19772 4.11379,6.34547 11.18521,-9.70641 16.77784,-14.51928 5.5926,-4.81288 -8.01251,-11.4541 -12.01875,-17.18115 -4.00625,-5.72705 -11.40032,8.38891 -16.93916,12.50271 z"
       transform="matrix(1.0157471,0,0,1.0157471,35.314444,-34.959386)" /><path
       style="display:inline;fill:none;fill-opacity:1;stroke:#892353;stroke-width:3.865;stroke-linecap:round;stroke-dasharray:none;stroke-opacity:1"
       d="m 319.42423,194.63905 c -0.92508,4.1599 -0.3138,8.68785 1.89947,12.32955 2.21327,3.64169 6.05593,6.30894 10.2806,6.86817 4.09041,0.54146 8.35318,-0.912 11.4213,-3.67085 3.06812,-2.75885 4.9447,-6.74295 5.35654,-10.84843 0.38414,-3.82939 -0.4943,-7.81007 -2.64063,-11.0046 -2.14633,-3.19454 -5.58174,-5.54464 -9.37812,-6.17655 -3.81746,-0.63542 -7.85228,0.49212 -10.92249,2.84808 -3.07021,2.35597 -5.17658,5.87693 -6.01667,9.65463 z"
       id="path7-4"
       inkscape:path-effect="#path-effect7-1"
       inkscape:original-d="m 319.42423,194.63905 c -5.8615,4.27512 8.06625,12.85226 12.18007,19.19772 4.11379,6.34547 11.18521,-9.70641 16.77784,-14.51928 5.5926,-4.81288 -8.01251,-11.4541 -12.01875,-17.18115 -4.00625,-5.72705 -11.40032,8.38891 -16.93916,12.50271 z"
       transform="matrix(1.0885337,0,0,1.0236956,39.540825,5.8199179)" /><g
       id="text7"
       style="font-size:123.472px;line-height:0.8;font-family:Gratelos;-inkscape-font-specification:Gratelos;text-align:end;text-anchor:end;fill:#65adb4;stroke-width:3.86501;stroke-linecap:round"
       aria-label="Joint&#10;Jam"
       transform="translate(25.812059,6.7756653)"
       inkscape:path-effect="#path-effect17"><path
         style="stroke-width:3.865"
         d="m 27.799746,150.99741 c -6.880099,-0.84987 -11.841791,-4.12913 -14.941082,-9.8115 -3.0736682,-5.63539 -3.9180966,-12.86779 -2.552083,-21.7335 L 15.152105,88.003967 30.62788,88.88817 26.074609,118.4034 c -0.523778,3.39523 -0.33651,6.08594 0.563452,8.07607 0.920332,1.87767 2.406431,2.92115 4.463304,3.12759 2.065903,0.20735 3.844897,-0.51547 5.333084,-2.17239 1.510403,-1.7799 2.532998,-4.39343 3.064849,-7.8373 L 53.545308,28.646072 70.189153,28.533954 55.489792,123.59128 c -1.438184,9.30039 -4.68833,16.43632 -9.717039,21.3763 -4.984347,4.89641 -10.990469,6.89235 -17.973007,6.02983 z m 52.306158,6.46115 c -7.19597,-0.88888 -12.486703,-4.54513 -15.927611,-10.93614 -3.319428,-6.3254 -4.244974,-14.14497 -2.797577,-23.50067 l 8.12658,-52.528661 c 1.449581,-9.369812 4.804246,-16.936005 10.099454,-22.736084 5.343353,-5.852819 11.664371,-8.78533 19.006397,-8.757221 6.956943,0.02663 12.191413,3.080208 15.653063,9.199129 3.51093,6.043679 4.51455,13.99881 2.98864,23.824913 l -8.61358,55.466964 c -0.96954,6.2433 -2.84194,11.74605 -5.60889,16.4945 -2.75575,4.72924 -6.181556,8.33009 -10.263337,10.80328 -3.935661,2.34164 -8.160033,3.22624 -12.663139,2.66999 z m -1.73883,-32.71214 c -1.110851,7.17058 0.557953,10.98161 5.036482,11.43708 2.110304,0.21463 3.882718,-0.49333 5.313045,-2.12744 1.453135,-1.76321 2.462755,-4.46321 3.026313,-8.09712 l 8.459376,-54.547345 c 0.56436,-3.639068 0.39412,-6.354632 -0.509215,-8.143382 -0.881866,-1.909816 -2.394086,-2.889953 -4.531344,-2.9435 -4.535701,-0.113639 -7.344564,3.421026 -8.457069,10.602283 z M 128.18296,27.374729 c 1.11557,-7.181458 5.71056,-10.844611 13.87959,-10.990206 8.51235,-0.151714 12.24799,3.449139 11.10333,10.803421 -0.55181,3.545345 -1.99427,6.238626 -4.32059,8.0747 -2.21054,1.829141 -5.59884,2.734982 -10.14142,2.722649 -4.39929,-0.01194 -7.37903,-0.921817 -8.96263,-2.724903 -1.57803,-1.796724 -2.09608,-4.423621 -1.55828,-7.885661 z m 0.0504,15.595514 c 2.38544,1.307544 5.50844,1.981851 9.38159,2.018266 3.69032,0.03469 7.08222,-0.587085 10.16882,-1.870796 L 132.00634,144.50921 c -1.09717,7.05081 -1.43456,12.66089 -1.01168,16.83718 l -19.24165,-2.33252 c -0.3969,-4.09697 -0.0575,-9.60254 1.01781,-16.5234 z m 26.64805,-1.777536 19.05136,0.108312 -12.40109,33.316372 0.66251,0.02441 c 5.15707,-13.782648 10.3075,-23.080239 15.46001,-27.860865 5.21626,-4.955402 10.83354,-7.437059 16.8687,-7.413953 5.8659,0.02246 10.15617,2.522966 12.83611,7.524059 2.69631,5.031607 3.23572,12.769241 1.6062,23.187859 l -12.76119,81.590433 c -0.60704,3.88122 -1.04633,7.07572 -1.31793,9.58406 -0.15304,2.52254 -0.0204,5.15059 0.39857,7.88637 l -21.66663,-2.62647 c -0.39543,-2.68035 -0.51593,-5.2558 -0.36197,-7.72852 0.26791,-2.45906 0.69891,-5.591 1.29307,-9.39636 l 11.59708,-74.275058 c 1.29695,-8.306485 -0.59382,-12.523978 -5.63746,-12.650342 -5.56241,-0.139362 -9.13868,5.02603 -10.77095,15.493109 l -10.88157,69.779361 c -0.58484,3.75038 -1.00984,6.83698 -1.27504,9.26033 -0.15452,2.43662 -0.0426,4.97398 0.33618,7.61421 l -20.23998,-2.45354 c -0.3578,-2.58855 -0.45894,-5.07686 -0.30382,-7.46695 0.26166,-2.37732 0.6789,-5.40548 1.25176,-9.08498 z m 66.76112,26.318819 -6.59959,-0.188776 4.03157,-25.765086 8.1082,0.0461 8.18842,-20.114076 15.41737,-0.183688 -3.20133,20.413769 9.30554,0.05291 -4.17881,26.627627 -7.73464,-0.221243 -12.56413,80.107694 c -1.3459,8.58135 -1.3831,17.01909 -0.10775,25.34099 l -23.12706,-2.80351 c -1.46507,-6.46499 -1.40564,-14.73135 0.17398,-24.82123 z"
         id="path13"
         inkscape:original-d="m 69.093226,138.60822 q -10.001232,0 -15.804416,-5.55624 -5.803184,-5.55624 -5.803184,-15.06358 V 95.516492 h 15.187056 v 20.743298 q 0,3.58069 1.728608,5.55624 1.728608,1.85208 4.691936,1.85208 2.963328,0 4.691936,-1.85208 1.728608,-1.97555 1.728608,-5.55624 V 53.289068 H 90.700826 V 117.9884 q 0,9.50734 -5.803184,15.06358 -5.803184,5.55624 -15.804416,5.55624 z m 47.660084,0 q -9.38387,0 -15.18705,-5.92666 -5.679716,-5.92665 -5.679716,-15.434 V 81.687628 q 0,-9.507344 5.803186,-15.434 5.80318,-5.926656 15.18705,-5.926656 8.76652,0 14.19928,5.926656 5.43277,5.803184 5.43277,15.310528 v 35.806884 q 0,6.05012 -2.46944,10.86553 -2.46944,4.81541 -7.0379,7.65527 -4.44499,2.71638 -10.24818,2.71638 z m -5.80318,-21.23718 q 0,7.16137 5.80318,7.16137 2.71639,0 4.19805,-1.72861 1.48166,-1.85208 1.48166,-5.43276 V 81.564156 q 0,-3.580688 -1.48166,-5.309296 -1.48166,-1.85208 -4.19805,-1.85208 -5.80318,0 -5.80318,7.161376 z m 28.76901,-64.57586 q 0,-6.914432 9.63082,-6.914432 9.87776,0 9.87776,6.914432 0,3.333744 -2.34597,5.062352 -2.2225,1.728608 -7.53179,1.728608 -5.18583,0 -7.40832,-1.728608 -2.2225,-1.728608 -2.2225,-5.062352 z m 1.97555,10.001232 q 3.0868,1.23472 7.65527,1.23472 4.32152,0 7.65526,-1.23472 v 63.835028 q 0,6.66748 1.23472,10.49512 h -15.31053 q -1.23472,-3.82764 -1.23472,-10.49512 z m 20.4964,-1.23472 h 14.19928 l -5.3093,20.619824 h 0.49389 q 3.33375,-12.841088 8.14915,-17.28608 4.81541,-4.568464 11.23596,-4.568464 6.1736,0 9.75428,4.444992 3.58069,4.444992 3.58069,13.705392 v 48.401024 q 0,3.45722 0.12347,5.67971 0.24695,2.2225 1.11125,4.56847 h -15.31053 q -0.8643,-2.34597 -1.11124,-4.56847 -0.12348,-2.22249 -0.12348,-5.67971 V 81.934572 q 0,-7.531792 -5.43276,-7.531792 -6.05013,0 -6.05013,9.630816 v 42.844784 q 0,3.45722 0.12347,5.67971 0.24694,2.2225 1.11125,4.56847 h -15.31053 q -0.8643,-2.34597 -1.11125,-4.56847 -0.12347,-2.22249 -0.12347,-5.67971 z m 50.3765,15.187056 H 208.1226 V 61.561692 h 5.43277 l 3.33374,-11.72984 h 10.00124 v 11.72984 h 5.92665 v 15.187056 h -4.93888 V 122.8038 q 0,7.40832 2.46944,14.32276 h -15.31053 q -2.46944,-5.43277 -2.46944,-14.32276 z" /></g><g
       id="text7-9"
       style="font-size:123.472px;line-height:0.8;font-family:Gratelos;-inkscape-font-specification:Gratelos;text-align:end;text-anchor:end;fill:#65adb4;stroke-width:3.86501;stroke-linecap:round"
       aria-label="Joint&#10;Jam"
       transform="translate(-10.002256,32.343592)"
       inkscape:path-effect="#path-effect16"><path
         style="stroke-width:3.865"
         d="m 87.708567,255.90071 c -6.82201,-1.45324 -11.7885,-5.09692 -14.949053,-10.91275 -3.137105,-5.77267 -4.086452,-12.89766 -2.865237,-21.40862 l 4.332225,-30.19237 15.353268,2.37274 -4.065662,28.28923 c -0.467657,3.25401 -0.24194,5.88929 0.678657,7.90947 0.93883,1.9122 2.42462,3.06556 4.461791,3.45802 2.045212,0.39401 3.792323,-0.14267 5.237824,-1.61382 1.465259,-1.58818 2.436334,-4.03147 2.910661,-7.32729 l 12.528999,-87.05665 16.3808,1.60628 -13.09352,90.82549 c -1.28083,8.88465 -4.3763,15.5045 -9.25725,19.83517 -4.84212,4.29622 -10.740214,5.68778 -17.653503,4.2151 z m 42.777213,9.11248 c -4.57778,-0.97517 -7.80171,-3.94549 -9.69439,-8.90001 -1.86724,-5.04783 -2.17036,-11.91177 -0.91555,-20.61086 l 1.30534,-9.04941 c 0.97087,-6.7306 2.41747,-11.95654 4.3435,-15.68422 2.03878,-3.83956 4.9316,-6.78206 8.69204,-8.82909 3.89398,-2.16364 9.37434,-3.9284 16.48795,-5.29632 2.28447,-0.39428 4.13118,-1.403 5.53549,-3.02757 1.4073,-1.62803 2.35434,-4.11733 2.83888,-7.46553 0.50189,-3.46812 0.21071,-6.18703 -0.87165,-8.15296 -0.967,-2.06838 -2.59386,-3.24526 -4.87506,-3.53314 -2.36622,-0.29862 -4.34169,0.41637 -5.93113,2.14083 -1.58552,1.72023 -2.62407,4.2898 -3.11851,7.71163 l -15.99038,-2.3571 c 1.47608,-10.23231 4.62495,-17.60601 9.47449,-22.1452 4.98031,-4.56451 10.89941,-6.49376 17.79187,-5.75339 6.97983,0.74975 12.22345,3.87602 15.68332,9.4021 3.48552,5.56702 4.56134,13.03445 3.20833,22.36935 l -8.84696,61.03806 c -0.84174,5.80745 -1.29143,9.94962 -1.34921,12.42812 -0.0578,2.47963 0.0772,6.06003 0.40552,10.7461 l -15.91454,-3.35792 c -0.14687,-1.01547 -0.13387,-2.12003 0.0389,-3.31408 0.2938,-2.02997 1.15841,-4.62007 2.59581,-7.77455 1.44003,-3.16027 3.67955,-7.4043 6.72609,-12.74446 l -0.57822,-0.10848 c -3.87864,7.02315 -7.33482,12.24634 -10.37328,15.68535 -2.91302,3.32381 -5.63299,5.38721 -8.16133,6.19858 -2.53445,0.92598 -5.37207,1.05206 -8.50736,0.38417 z m 5.42791,-30.67478 c -0.47609,3.29527 -0.26961,5.81258 0.62076,7.5548 0.98507,1.76356 2.45579,2.83508 4.41586,3.21268 2.15489,0.41514 3.95481,-0.33684 5.39566,-2.26025 1.44394,-1.92752 2.46862,-4.97714 3.07177,-9.14615 l 3.63391,-24.10814 c -2.89112,0.51575 -5.76348,1.33302 -8.61755,2.44965 -3.7472,1.44619 -6.25831,6.64054 -7.55107,15.58821 z m 49.54221,-75.20646 18.18446,1.98322 -10.21477,28.20181 0.6124,0.0825 c 4.2651,-11.40084 8.78592,-19.04684 13.57328,-22.91784 4.94602,-4.0131 10.23705,-5.72988 15.88576,-5.12311 3.76045,0.40394 6.38479,1.97419 7.85823,4.7151 1.58686,2.76161 1.9553,7.07447 1.10153,12.9311 -0.4825,3.30981 -1.40267,7.34121 -2.75929,12.09 l 0.65181,0.0861 c 3.6672,-10.689 7.88897,-17.84866 12.68048,-21.4676 4.93778,-3.63292 10.34194,-5.14569 16.22798,-4.51343 5.37001,0.57683 9.19972,3.58329 11.46129,9.03511 2.29175,5.34648 2.76658,12.64147 1.41648,21.86374 l -11.49966,78.55147 c -0.50022,3.41689 -0.85622,6.25386 -1.06804,8.51136 -0.0966,2.28165 0.0948,4.62427 0.57493,7.02963 l -21.09047,-4.45002 c -0.45851,-2.36053 -0.63842,-4.6605 -0.54019,-6.90162 0.20942,-2.21779 0.55933,-5.00517 1.04977,-8.36258 l 10.22542,-69.99973 c 1.15321,-7.89449 -0.68566,-12.15086 -5.4877,-12.76401 -5.53545,-0.70681 -9.01996,3.98901 -10.49173,14.08028 l -9.57452,65.64799 c -0.48336,3.31414 -0.82883,6.06545 -1.03648,8.25438 -0.0993,2.21163 0.0724,4.48062 0.51546,6.80861 l -19.84581,-4.1874 c -0.42353,-2.28596 -0.58478,-4.51491 -0.48416,-6.68844 0.20531,-2.15157 0.54504,-4.85622 1.01925,-8.11437 l 9.8867,-67.92801 c 1.11498,-7.66059 -0.6018,-11.78193 -5.1239,-12.35934 -5.21411,-0.66578 -8.51552,3.90267 -9.93917,13.69872 l -9.26172,63.72949 c -0.46757,3.21739 -0.80313,5.88807 -1.00672,8.01245 -0.10151,2.1458 0.0523,4.34563 0.46188,6.60105 l -18.70817,-3.94737 c -0.39178,-2.21593 -0.5362,-4.37811 -0.43363,-6.48801 0.20133,-2.08919 0.53147,-4.71588 0.99048,-7.88047 z"
         id="path14-3"
         inkscape:original-d="m 89.465984,237.38582 q -10.001232,0 -15.804416,-5.55624 -5.803184,-5.55624 -5.803184,-15.06358 V 194.29409 H 83.04544 v 20.7433 q 0,3.58069 1.728608,5.55624 1.728608,1.85208 4.691936,1.85208 2.963328,0 4.691936,-1.85208 1.728608,-1.97555 1.728608,-5.55624 V 152.06667 H 111.07358 V 216.766 q 0,9.50734 -5.80318,15.06358 -5.803184,5.55624 -15.804416,5.55624 z m 39.881346,0 q -6.1736,0 -9.63081,-4.69193 -3.45722,-4.81541 -3.45722,-14.07581 v -6.42055 q 0,-7.16137 1.85208,-11.35942 1.97555,-4.32152 6.54402,-7.0379 4.69193,-2.83986 13.58192,-5.3093 2.83985,-0.74083 4.32152,-2.59291 1.48166,-1.85208 1.48166,-5.3093 0,-3.58069 -1.72861,-5.43277 -1.60513,-1.97555 -4.56846,-1.97555 -3.0868,0 -4.81541,1.97555 -1.72861,1.97556 -1.72861,5.55624 l -14.32275,-0.12347 q 0,-10.86553 5.55624,-16.17483 5.67971,-5.3093 14.69317,-5.3093 9.01346,0 14.32275,5.18583 5.3093,5.18582 5.3093,14.69317 v 41.48659 q 0,5.92665 0.37041,8.39609 0.37042,2.46944 1.60514,7.03791 h -13.58192 q -0.37042,-0.98778 -0.37042,-2.2225 0,-2.09902 1.23472,-5.55624 1.23472,-3.45721 4.07458,-9.38387 h -0.49389 q -3.58069,7.77874 -6.79096,11.85331 -3.0868,3.95111 -6.1736,5.3093 -3.0868,1.48166 -7.28485,1.48166 z m 0.86431,-21.6076 q 0,3.45722 1.48166,5.06235 1.60514,1.60514 4.19805,1.60514 2.83986,0 4.32152,-2.2225 1.48166,-2.22249 1.48166,-6.54401 l 0.12348,-16.66872 q -3.58069,0.98777 -7.03791,2.59291 -4.56846,2.09902 -4.56846,11.4829 z m 32.34966,-55.43893 h 14.69317 l -4.81541,19.26164 h 0.49389 q 3.0868,-11.72984 8.02568,-16.05136 5.06235,-4.445 11.60637,-4.445 4.32152,0 6.42054,2.46944 2.2225,2.46944 2.2225,8.14916 0,3.21027 -0.74084,7.9022 h 0.49389 q 2.34597,-10.61859 7.03791,-14.56969 4.8154,-3.95111 11.23595,-3.95111 5.80318,0 9.01345,4.81541 3.21028,4.69194 3.21028,13.33498 v 49.14185 q 0,3.21028 0.12347,5.3093 0.24694,2.09902 1.11125,4.19805 h -15.31053 q -0.86431,-2.09903 -1.11125,-4.19805 -0.12347,-2.09902 -0.12347,-5.3093 v -44.57339 q 0,-7.53179 -5.3093,-7.53179 -6.1736,0 -6.1736,9.75429 v 42.35089 q 0,3.21028 0.12347,5.3093 0.24695,2.09902 1.11125,4.19805 h -15.31053 q -0.8643,-2.09903 -1.11124,-4.19805 -0.12348,-2.09902 -0.12348,-5.3093 v -44.57339 q 0,-7.53179 -5.30929,-7.53179 -6.1736,0 -6.1736,9.75429 v 42.35089 q 0,3.21028 0.12347,5.3093 0.24694,2.09902 1.11125,4.19805 h -15.31053 q -0.8643,-2.09903 -1.11125,-4.19805 -0.12347,-2.09902 -0.12347,-5.3093 z" /></g></g></svg>
